name C:\Users\u0101727\Documents\MyRepositories\paper-ad\predictivesimulations_2d/Results/PredSim_2D/IK_c16.mot
datacolumns 11
datarows 38
range 0.00000000 0.07400000
endheader
time	pelvis_tilt	pelvis_tx	pelvis_ty	hip_flexion_l	hip_flexion_r	knee_angle_l	knee_angle_r	ankle_angle_l	ankle_angle_r	lumbar_extension	
          0.00000000	        -22.55188057	          0.00000000	          0.86234274	         22.53610697	         22.57817873	        -52.20539614	        -52.23640597	         -5.00986563	         -4.96654784	         -8.42586582	
          0.00200000	        -22.58553255	          0.00276992	          0.86200183	         22.54299323	         22.58604169	        -52.19638705	        -52.22689363	         -5.00214856	         -4.95659200	         -8.35506972	
          0.00400000	        -22.61978549	          0.00558417	          0.86162654	         22.54000591	         22.58377787	        -52.18403414	        -52.21374556	         -4.99388408	         -4.94853688	         -8.27303993	
          0.00600000	        -22.65455372	          0.00843897	          0.86122903	         22.52801598	         22.57224947	        -52.16848215	        -52.19716973	         -4.98937756	         -4.94529582	         -8.18078720	
          0.00800000	        -22.68859956	          0.01133024	          0.86082189	         22.50681842	         22.55121166	        -52.14990468	        -52.17737347	         -4.99340554	         -4.94980814	         -8.08093257	
          0.01000000	        -22.71947855	          0.01425392	          0.86041919	         22.47491606	         22.51915064	        -52.12853668	        -52.15460800	         -5.00673708	         -4.96232446	         -7.97770873	
          0.01200000	        -22.74699504	          0.01720444	          0.86003364	         22.43345303	         22.47720601	        -52.10494340	        -52.12940233	         -5.02763224	         -4.98162230	         -7.87268875	
          0.01400000	        -22.77279434	          0.02017484	          0.85967498	         22.38582753	         22.42876742	        -52.07999145	        -52.10256531	         -5.05487454	         -5.00696034	         -7.76529365	
          0.01600000	        -22.79671954	          0.02315929	          0.85935409	         22.33331007	         22.37511525	        -52.05434093	        -52.07474163	         -5.08719615	         -5.03787277	         -7.65709495	
          0.01800000	        -22.81642237	          0.02615413	          0.85908337	         22.27432055	         22.31469806	        -52.02817563	        -52.04610277	         -5.12208195	         -5.07316107	         -7.55210624	
          0.02000000	        -22.82958939	          0.02915594	          0.85887314	         22.20726670	         22.24595638	        -52.00176422	        -52.01692294	         -5.15645848	         -5.11060796	         -7.45422982	
          0.02200000	        -22.83552841	          0.03216015	          0.85872813	         22.13255140	         22.16930669	        -51.97563705	        -51.98778522	         -5.18895876	         -5.14805275	         -7.36545370	
          0.02400000	        -22.83437378	          0.03516180	          0.85864827	         22.05150242	         22.08609539	        -51.95018980	        -51.95919515	         -5.22051857	         -5.18458007	         -7.28675662	
          0.02600000	        -22.82661356	          0.03815592	          0.85862950	         21.96579413	         21.99803284	        -51.92565752	        -51.93149709	         -5.25379669	         -5.22138787	         -7.21865310	
          0.02800000	        -22.81265079	          0.04113790	          0.85866582	         21.87689016	         21.90663818	        -51.90212268	        -51.90484142	         -5.29142902	         -5.26090383	         -7.16169364	
          0.03000000	        -22.79308346	          0.04410323	          0.85875089	         21.78640959	         21.81359646	        -51.87971475	        -51.87939821	         -5.33447591	         -5.30475618	         -7.11614528	
          0.03200000	        -22.76866019	          0.04704751	          0.85887889	         21.69607504	         21.72069624	        -51.85861684	        -51.85539551	         -5.38226047	         -5.35279559	         -7.08204344	
          0.03400000	        -22.74010727	          0.04996660	          0.85904438	         21.60751398	         21.62961179	        -51.83905486	        -51.83310678	         -5.43255356	         -5.40278508	         -7.05939280	
          0.03600000	        -22.70810912	          0.05285661	          0.85924210	         21.52225106	         21.54189743	        -51.82131817	        -51.81284915	         -5.48170504	         -5.45104697	         -7.04819470	
          0.03800000	        -22.67331157	          0.05571384	          0.85946678	         21.44172366	         21.45901344	        -51.80572752	        -51.79495335	         -5.52544394	         -5.49358488	         -7.04844946	
          0.04000000	        -22.63632460	          0.05853482	          0.85971333	         21.36729735	         21.38233541	        -51.79259747	        -51.77974764	         -5.55978543	         -5.52641634	         -7.06015738	
          0.04200000	        -22.59773070	          0.06131623	          0.85997713	         21.30031513	         21.31321382	        -51.78221297	        -51.76751673	         -5.58273975	         -5.54786434	         -7.08331964	
          0.04400000	        -22.55805600	          0.06405505	          0.86025369	         21.24205507	         21.25293637	        -51.77478862	        -51.75845758	         -5.59598691	         -5.56031566	         -7.11793680	
          0.04600000	        -22.51768738	          0.06674907	          0.86053878	         21.19348939	         21.20247088	        -51.77043500	        -51.75268130	         -5.60284299	         -5.56705355	         -7.16400838	
          0.04800000	        -22.47717303	          0.06939726	          0.86082826	         21.15544862	         21.16263195	        -51.76915406	        -51.75023195	         -5.60546328	         -5.56934082	         -7.22104734	
          0.05000000	        -22.43708726	          0.07199966	          0.86111851	         21.12854948	         21.13401885	        -51.77111133	        -51.75121281	         -5.60396752	         -5.56681645	         -7.28827028	
          0.05200000	        -22.39816805	          0.07455712	          0.86140644	         21.11342546	         21.11724021	        -51.77662659	        -51.75586456	         -5.59732927	         -5.55876556	         -7.36447141	
          0.05400000	        -22.36064032	          0.07707169	          0.86169007	         21.10987366	         21.11206759	        -51.78571529	        -51.76423529	         -5.58479535	         -5.54470071	         -7.44886472	
          0.05600000	        -22.32464913	          0.07954597	          0.86196781	         21.11746858	         21.11805167	        -51.79828283	        -51.77624899	         -5.56655814	         -5.52473481	         -7.54063847	
          0.05800000	        -22.29080895	          0.08198287	          0.86223747	         21.13622789	         21.13518754	        -51.81427372	        -51.79183680	         -5.54368836	         -5.49996598	         -7.63828642	
          0.06000000	        -22.25975759	          0.08438600	          0.86249678	         21.16600616	         21.16331448	        -51.83353227	        -51.81081299	         -5.51742811	         -5.47182203	         -7.74010226	
          0.06200000	        -22.23275484	          0.08675981	          0.86274247	         21.20706604	         21.20268419	        -51.85574709	        -51.83284566	         -5.48901093	         -5.44143466	         -7.84336547	
          0.06400000	        -22.21090874	          0.08910969	          0.86297133	         21.25924668	         21.25314095	        -51.88039232	        -51.85742168	         -5.45970632	         -5.40969998	         -7.94534454	
          0.06600000	        -22.19484682	          0.09144124	          0.86318074	         21.32185946	         21.31397361	        -51.90696341	        -51.88400008	         -5.43082110	         -5.37759843	         -8.04388872	
          0.06800000	        -22.18506016	          0.09375986	          0.86336820	         21.39413243	         21.38441441	        -51.93503172	        -51.91212223	         -5.40291250	         -5.34613721	         -8.13708496	
          0.07000000	        -22.18186276	          0.09607074	          0.86353133	         21.47513688	         21.46353308	        -51.96421567	        -51.94133038	         -5.37516983	         -5.31571384	         -8.22329478	
          0.07200000	        -22.18534276	          0.09837896	          0.86366796	         21.56372380	         21.55017850	        -51.99415101	        -51.97117812	         -5.34588095	         -5.28593667	         -8.30120653	
          0.07400000	        -22.19533122	          0.10068951	          0.86377623	         21.65851403	         21.64297517	        -52.02447139	        -52.00126743	         -5.31402296	         -5.25625695	         -8.36987353	
